<svg data-v-423bf9ae="" xmlns="http://www.w3.org/2000/svg" viewBox="0 0 229.16418730322997 163" class="iconAbove"><!----><!----><!----><g data-v-423bf9ae="" id="27f30567-c0de-4017-8c38-b135f469d8bb" fill="#3A3B7B" transform="matrix(4.4776120677666755,0,0,4.4776120677666755,-0.15672068243777915,87.77611997308642)"><path d="M3.05 6.69L3.05 4.72L2.53 4.72C2.08 6.07 1.50 7.01 0.62 7.41L0.62 7.74L1.93 7.74L1.93 11.80C1.93 12.96 2.53 13.73 3.69 13.73C4.38 13.73 4.73 13.54 5.10 13.25L5.10 12.33C4.83 12.50 4.48 12.66 3.94 12.66C3.34 12.66 3.05 12.32 3.05 11.74L3.05 7.74L5.04 7.74L5.04 6.69ZM10.31 6.55C9.53 6.55 8.72 7.15 8.20 8.05L8.20 6.69L7.08 6.69L7.08 13.52L8.20 13.52L8.20 9.39C8.71 8.48 9.21 7.72 10.14 7.72C10.50 7.72 10.86 7.86 11.14 8.08L11.14 6.74C10.90 6.62 10.62 6.55 10.31 6.55ZM15.39 6.55C13.52 6.55 12.10 7.96 12.10 10.21C12.10 12.29 13.52 13.73 15.29 13.73C16.32 13.73 17.16 13.08 17.64 12.36L17.64 13.52L18.76 13.52L18.76 6.69L17.64 6.69L17.64 7.60C17.05 6.95 16.17 6.55 15.39 6.55ZM15.60 7.64C16.43 7.64 17.05 8.07 17.62 8.78L17.64 10.09C17.65 11.55 16.71 12.63 15.46 12.63C14.14 12.63 13.26 11.54 13.26 10.21C13.26 8.89 14.14 7.64 15.60 7.64ZM24.43 6.55C23.50 6.55 22.63 7.23 22.20 7.77L22.20 6.69L21.08 6.69L21.08 13.52L22.20 13.52L22.20 8.98C22.75 8.27 23.52 7.64 24.24 7.64C25.32 7.64 25.83 8.29 25.83 9.46L25.84 13.52L26.96 13.52L26.96 9.35C26.96 7.46 25.83 6.55 24.43 6.55ZM31.90 6.55C30.02 6.55 28.60 7.96 28.60 10.21C28.60 12.29 30.02 13.73 31.79 13.73C32.83 13.73 33.66 13.08 34.14 12.36L34.14 16.80L35.26 16.80L35.26 6.69L34.14 6.69L34.14 7.60C33.55 6.95 32.68 6.55 31.90 6.55ZM32.10 7.66C32.94 7.66 33.55 8.07 34.13 8.78L34.14 10.09C34.15 11.55 33.21 12.62 31.96 12.62C30.64 12.62 29.76 11.54 29.76 10.21C29.76 8.89 30.64 7.66 32.10 7.66ZM43.18 6.69L42.01 6.69L42.01 10.73C42.01 11.92 41.19 12.56 40.28 12.56C39.36 12.56 38.54 11.92 38.54 10.73L38.54 6.69L37.38 6.69L37.38 10.73C37.38 12.54 38.64 13.66 40.28 13.66C41.92 13.66 43.18 12.54 43.18 10.73ZM46.39 5.26C46.91 5.26 47.32 4.81 47.32 4.33C47.32 3.84 46.91 3.40 46.39 3.40C45.86 3.40 45.46 3.84 45.46 4.33C45.46 4.81 45.86 5.26 46.39 5.26ZM47.09 6.69L44.88 6.69L44.88 7.74L45.96 7.74L45.96 13.52L47.09 13.52ZM50.63 13.52L50.63 3.68L49.51 3.68L49.51 13.52Z"></path></g><defs data-v-423bf9ae=""><linearGradient data-v-423bf9ae="" gradientTransform="rotate(25)" id="7abfd7d5-981d-416a-aae3-188a4e536bb3" x1="0%" y1="0%" x2="100%" y2="0%"><stop data-v-423bf9ae="" offset="0%" style="stop-color: rgb(101, 193, 221); stop-opacity: 1;"></stop><stop data-v-423bf9ae="" offset="100%" style="stop-color: rgb(115, 130, 235); stop-opacity: 1;"></stop></linearGradient></defs><g data-v-423bf9ae="" id="cadb7f78-0a2c-4e3f-be03-f8c6028da20d" transform="matrix(2.6865671641791047,0,0,2.6865671641791047,-18.894035880245383,-88.82537056083112)" stroke="none" fill="url(#7abfd7d5-981d-416a-aae3-188a4e536bb3)"><style></style><path d="M74.4 54.6c.1 0 .2.1.3.1.2 0 .4-.1.5-.3.2-.3.1-.6-.2-.8-.3-.2-.6-.1-.8.2-.2.3-.1.7.2.8zM47.3 53.9c.1 0 .2 0 .4-.1.2-.2.3-.5.1-.8-.2-.2-.5-.3-.8-.1-.2.2-.3.5-.1.8.1.1.2.2.4.2zM43.4 55.8h.1c.3-.1.5-.4.4-.7-.1-.3-.4-.5-.7-.4-.3.1-.5.4-.4.7.1.3.3.4.6.4zM45.4 55.1c.1 0 .2 0 .2-.1.3-.1.4-.5.2-.7-.1-.3-.5-.4-.7-.2s-.4.5-.2.7c.1.2.3.3.5.3zM34.5 55.5h.2c.2 0 .4-.1.5-.4.1-.3 0-.6-.3-.7-.3-.1-.6 0-.7.3-.1.3 0 .7.3.8zM36.7 56.1h.1c.3 0 .5-.2.5-.4 0-.3-.1-.6-.5-.6-.3-.1-.6.1-.6.4s.2.5.5.6zM39 56.3c.3 0 .6-.2.6-.5s-.2-.5-.5-.6c-.3 0-.6.2-.6.5-.1.3.2.6.5.6zM41.2 56.2c.4 0 .6-.3.5-.6 0-.3-.3-.5-.6-.5s-.5.3-.5.6c.1.3.3.5.6.5zM83.2 56.2c.4 0 .6-.3.5-.6 0-.3-.3-.5-.6-.5s-.5.3-.5.6c.1.3.3.5.6.5zM85.4 55.8h.1c.3-.1.5-.4.4-.7-.1-.3-.4-.5-.7-.4-.3.1-.5.4-.4.7.1.3.3.4.6.4zM87.5 55.2h.2c.3-.1.4-.4.3-.7-.1-.3-.4-.4-.7-.3-.3.1-.4.4-.3.7 0 .1.3.3.5.3zM89 53.9c.1.2.3.2.5.2.1 0 .2 0 .3-.1.2-.2.3-.5.1-.8-.2-.2-.5-.3-.8-.1-.3.2-.3.5-.1.8zM76.5 55.6h.2c.2 0 .4-.1.5-.4.1-.3 0-.6-.3-.7s-.6 0-.7.3c-.1.4 0 .7.3.8zM32.4 54.4c.1.1.2.1.3.1.2 0 .3-.1.5-.2.2-.2.1-.6-.2-.8-.3-.2-.6-.1-.8.2-.1.2 0 .6.2.7zM78.7 56.1c.1 0 .1 0 0 0 .3 0 .6-.2.6-.5s-.2-.6-.5-.6-.6.2-.6.5.2.6.5.6zM81 56.3c.3 0 .5-.2.5-.5s-.2-.5-.5-.5-.5.2-.6.5c.1.2.3.5.6.5zM58.9 43.8c-.3 0-.5.3-.5.6s.3.5.5.5h.1c.3 0 .5-.3.5-.6-.1-.3-.3-.6-.6-.5zM56.6 44.1c-.3.1-.5.4-.4.7.1.2.3.4.5.4h.1c.3-.1.5-.4.4-.7 0-.3-.3-.4-.6-.4zM54.4 44.9c-.3.1-.4.5-.3.7.1.2.3.3.5.3h.2c.3-.1.4-.5.3-.7s-.4-.4-.7-.3zM52.5 46.1c-.2.2-.3.5-.1.8.1.1.3.2.4.2.1 0 .2 0 .3-.1.2-.2.3-.5.1-.8-.2-.2-.5-.3-.7-.1zM61.1 43.7c-.3 0-.6.2-.6.5s.2.6.5.6.5-.2.5-.5c.2-.3-.1-.6-.4-.6zM10.4 45.9c-.2.2-.3.5-.1.8.1.2.3.2.4.2.1 0 .2 0 .3-.1.2-.2.3-.5.1-.8-.1-.2-.5-.3-.7-.1zM65.6 44.6c-.3-.1-.6 0-.7.3-.1.3 0 .6.3.7h.2c.2 0 .4-.1.5-.4.1-.2 0-.5-.3-.6zM63.4 43.9c-.3 0-.6.1-.6.4 0 .3.1.6.4.6h.1c.3 0 .5-.2.5-.5.1-.1-.1-.4-.4-.5zM67.7 45.6c-.2-.2-.6-.1-.8.1-.2.2-.1.6.1.8.1.1.2.1.3.1.2 0 .4-.1.5-.2.2-.3.1-.6-.1-.8zM14.6 44.1c-.3.1-.5.4-.4.7.1.2.3.4.5.4h.1c.3-.1.5-.4.4-.7 0-.2-.3-.4-.6-.4zM12.4 44.8c-.3.1-.4.4-.3.7.1.2.3.3.5.3h.2c.3-.1.4-.4.3-.7-.1-.3-.4-.4-.7-.3zM16.8 43.8c-.3 0-.5.3-.5.6s.3.5.5.5h.1c.3 0 .5-.3.5-.6s-.2-.5-.6-.5zM25.7 45.4c-.3-.2-.6-.1-.8.2-.2.2-.1.6.2.8.1.1.2.1.3.1.2 0 .4-.1.5-.3.1-.3.1-.6-.2-.8zM23.6 44.4c-.3-.1-.6.1-.7.3-.1.3 0 .6.3.7h.2c.2 0 .4-.1.5-.4.1-.1 0-.5-.3-.6zM19.1 43.7c-.3 0-.6.2-.6.5s.2.6.5.6.5-.2.5-.5c.2-.4-.1-.6-.4-.6zM21.4 43.9c-.3 0-.6.2-.6.5s.1.6.5.6h.1c.3 0 .5-.2.5-.5s-.2-.6-.5-.6z"></path><path d="M90.7 50c0 .6 0 1.1-.1 1.6l-.1.1c-.1.2-.1.5 0 .7-.7 6.9-4.6 12.3-9.3 12.3-3.8 0-6.7-3.9-8.7-11.5.1.1.2.1.4.1s.3-.1.4-.2c.2-.2.2-.6 0-.8-.2-.2-.6-.2-.8 0-.1.1-.1.1-.1.2-.1-.5-.2-1-.4-1.5v-.2c-.1-.4-.2-.7-.2-1.1-2.2-11-5.9-16.4-11.4-16.4S51.2 38.7 49 49.7c-.1.5-.2 1-.3 1.4-.1 0-.3.1-.4.2-.2.2-.1.6.1.8-2 8.2-5 12.4-8.9 12.4-3.8 0-6.8-3.9-8.7-11.6h.2c.1 0 .3-.1.4-.2.2-.2.2-.6 0-.8-.2-.2-.6-.2-.8 0-.2-.8-.4-1.6-.5-2.4-2.2-11-5.9-16.4-11.4-16.4-6.3 0-11.4 7.4-11.4 16.6h1.9c0-.6 0-1.1.1-1.7.1 0 .1-.1.2-.1.2-.2.1-.5-.1-.7.8-6.9 4.7-12.1 9.3-12.1 3.9 0 6.7 3.8 8.7 11.5-.2-.2-.5-.1-.7 0-.2.2-.2.6 0 .8.1.1.2.2.4.2s.3-.1.4-.2l.1-.1c.2.9.4 1.7.6 2.7 2.2 11 5.9 16.4 11.4 16.4S48.8 61 51 50l.3-1.5c.2 0 .3-.1.4-.2.2-.2.1-.6-.1-.8h-.1c2-8.3 4.9-12.3 8.9-12.3 3.9 0 6.8 3.8 8.7 11.6-.2 0-.4 0-.5.1-.2.2-.2.6 0 .8.2.3.3.3.4.3.1 0 .2 0 .3-.1.2.7.3 1.5.5 2.3 2.2 11 5.9 16.4 11.4 16.4 6.3 0 11.4-7.4 11.4-16.6h-1.9z"></path></g><!----></svg>